<svg width="164" height="35" viewBox="0 0 164 35" fill="none" xmlns="http://www.w3.org/2000/svg">
<path d="M52.75 27V9H60.1875C60.3625 9 60.5875 9.00833 60.8625 9.025C61.1375 9.03333 61.3917 9.05833 61.625 9.1C62.6667 9.25833 63.525 9.60417 64.2 10.1375C64.8833 10.6708 65.3875 11.3458 65.7125 12.1625C66.0458 12.9708 66.2125 13.8708 66.2125 14.8625C66.2125 16.3292 65.8417 17.5917 65.1 18.65C64.3583 19.7 63.2208 20.35 61.6875 20.6L60.4 20.7125H55.7625V27H52.75ZM63.0875 27L59.5375 19.675L62.6 19L66.5 27H63.0875ZM55.7625 17.9H60.0625C60.2292 17.9 60.4167 17.8917 60.625 17.875C60.8333 17.8583 61.025 17.825 61.2 17.775C61.7 17.65 62.0917 17.4292 62.375 17.1125C62.6667 16.7958 62.8708 16.4375 62.9875 16.0375C63.1125 15.6375 63.175 15.2458 63.175 14.8625C63.175 14.4792 63.1125 14.0875 62.9875 13.6875C62.8708 13.2792 62.6667 12.9167 62.375 12.6C62.0917 12.2833 61.7 12.0625 61.2 11.9375C61.025 11.8875 60.8333 11.8583 60.625 11.85C60.4167 11.8333 60.2292 11.825 60.0625 11.825H55.7625V17.9ZM69.0039 20.3V17.9375H76.5039V20.3H69.0039ZM85.8895 27.375C84.5228 27.375 83.3228 27.0792 82.2895 26.4875C81.2561 25.8958 80.4478 25.075 79.8645 24.025C79.2895 22.975 79.002 21.7667 79.002 20.4C79.002 18.925 79.2853 17.6458 79.852 16.5625C80.4186 15.4708 81.2061 14.625 82.2145 14.025C83.2228 13.425 84.3895 13.125 85.7145 13.125C87.1145 13.125 88.302 13.4542 89.277 14.1125C90.2603 14.7625 90.9895 15.6833 91.4645 16.875C91.9395 18.0667 92.1186 19.4708 92.002 21.0875H89.0145V19.9875C89.0061 18.5208 88.7478 17.45 88.2395 16.775C87.7311 16.1 86.9311 15.7625 85.8395 15.7625C84.6061 15.7625 83.6895 16.1458 83.0895 16.9125C82.4895 17.6708 82.1895 18.7833 82.1895 20.25C82.1895 21.6167 82.4895 22.675 83.0895 23.425C83.6895 24.175 84.5645 24.55 85.7145 24.55C86.4561 24.55 87.0936 24.3875 87.627 24.0625C88.1686 23.7292 88.5853 23.25 88.877 22.625L91.852 23.525C91.3353 24.7417 90.5353 25.6875 89.452 26.3625C88.377 27.0375 87.1895 27.375 85.8895 27.375ZM81.2395 21.0875V18.8125H90.527V21.0875H81.2395ZM100.004 27.375C98.3368 27.375 96.9827 27 95.941 26.25C94.8993 25.5 94.266 24.4458 94.041 23.0875L97.116 22.6125C97.2743 23.2792 97.6243 23.8042 98.166 24.1875C98.7077 24.5708 99.391 24.7625 100.216 24.7625C100.941 24.7625 101.499 24.6208 101.891 24.3375C102.291 24.0458 102.491 23.65 102.491 23.15C102.491 22.8417 102.416 22.5958 102.266 22.4125C102.124 22.2208 101.808 22.0375 101.316 21.8625C100.824 21.6875 100.07 21.4667 99.0535 21.2C97.9202 20.9 97.0202 20.5792 96.3535 20.2375C95.6868 19.8875 95.2077 19.475 94.916 19C94.6243 18.525 94.4785 17.95 94.4785 17.275C94.4785 16.4333 94.6993 15.7 95.141 15.075C95.5827 14.45 96.1993 13.9708 96.991 13.6375C97.7827 13.2958 98.716 13.125 99.791 13.125C100.841 13.125 101.77 13.2875 102.579 13.6125C103.395 13.9375 104.054 14.4 104.554 15C105.054 15.6 105.362 16.3042 105.479 17.1125L102.404 17.6625C102.329 17.0875 102.066 16.6333 101.616 16.3C101.174 15.9667 100.583 15.7792 99.841 15.7375C99.1327 15.6958 98.5618 15.8042 98.1285 16.0625C97.6952 16.3125 97.4785 16.6667 97.4785 17.125C97.4785 17.3833 97.566 17.6042 97.741 17.7875C97.916 17.9708 98.266 18.1542 98.791 18.3375C99.3243 18.5208 100.116 18.7458 101.166 19.0125C102.241 19.2875 103.099 19.6042 103.741 19.9625C104.391 20.3125 104.858 20.7333 105.141 21.225C105.433 21.7167 105.579 22.3125 105.579 23.0125C105.579 24.3708 105.083 25.4375 104.091 26.2125C103.108 26.9875 101.745 27.375 100.004 27.375ZM116.229 27C115.337 27.1667 114.462 27.2375 113.604 27.2125C112.754 27.1958 111.991 27.0417 111.316 26.75C110.641 26.45 110.129 25.9792 109.779 25.3375C109.471 24.7542 109.308 24.1583 109.291 23.55C109.275 22.9417 109.266 22.2542 109.266 21.4875V9.75H112.266V21.3125C112.266 21.8542 112.271 22.3292 112.279 22.7375C112.296 23.1458 112.383 23.4792 112.541 23.7375C112.841 24.2375 113.321 24.5167 113.979 24.575C114.637 24.6333 115.387 24.6 116.229 24.475V27ZM106.816 15.8625V13.5H116.229V15.8625H106.816ZM122.907 27.375C121.932 27.375 121.107 27.1917 120.432 26.825C119.757 26.45 119.244 25.9542 118.894 25.3375C118.553 24.7208 118.382 24.0417 118.382 23.3C118.382 22.65 118.49 22.0667 118.707 21.55C118.924 21.025 119.257 20.575 119.707 20.2C120.157 19.8167 120.74 19.5042 121.457 19.2625C121.999 19.0875 122.632 18.9292 123.357 18.7875C124.09 18.6458 124.882 18.5167 125.732 18.4C126.59 18.275 127.486 18.1417 128.419 18L127.344 18.6125C127.353 17.6792 127.144 16.9917 126.719 16.55C126.294 16.1083 125.578 15.8875 124.569 15.8875C123.961 15.8875 123.374 16.0292 122.807 16.3125C122.24 16.5958 121.844 17.0833 121.619 17.775L118.869 16.9125C119.203 15.7708 119.836 14.8542 120.769 14.1625C121.711 13.4708 122.978 13.125 124.569 13.125C125.769 13.125 126.824 13.3208 127.732 13.7125C128.649 14.1042 129.328 14.7458 129.769 15.6375C130.011 16.1125 130.157 16.6 130.207 17.1C130.257 17.5917 130.282 18.1292 130.282 18.7125V27H127.644V24.075L128.082 24.55C127.474 25.525 126.761 26.2417 125.944 26.7C125.136 27.15 124.124 27.375 122.907 27.375ZM123.507 24.975C124.19 24.975 124.774 24.8542 125.257 24.6125C125.74 24.3708 126.124 24.075 126.407 23.725C126.699 23.375 126.894 23.0458 126.994 22.7375C127.153 22.3542 127.24 21.9167 127.257 21.425C127.282 20.925 127.294 20.5208 127.294 20.2125L128.219 20.4875C127.311 20.6292 126.532 20.7542 125.882 20.8625C125.232 20.9708 124.674 21.075 124.207 21.175C123.74 21.2667 123.328 21.3708 122.969 21.4875C122.619 21.6125 122.324 21.7583 122.082 21.925C121.84 22.0917 121.653 22.2833 121.519 22.5C121.394 22.7167 121.332 22.9708 121.332 23.2625C121.332 23.5958 121.415 23.8917 121.582 24.15C121.749 24.4 121.99 24.6 122.307 24.75C122.632 24.9 123.032 24.975 123.507 24.975ZM141.449 27C140.557 27.1667 139.682 27.2375 138.824 27.2125C137.974 27.1958 137.211 27.0417 136.536 26.75C135.861 26.45 135.349 25.9792 134.999 25.3375C134.69 24.7542 134.528 24.1583 134.511 23.55C134.494 22.9417 134.486 22.2542 134.486 21.4875V9.75H137.486V21.3125C137.486 21.8542 137.49 22.3292 137.499 22.7375C137.515 23.1458 137.603 23.4792 137.761 23.7375C138.061 24.2375 138.54 24.5167 139.199 24.575C139.857 24.6333 140.607 24.6 141.449 24.475V27ZM132.036 15.8625V13.5H141.449V15.8625H132.036ZM149.805 27.375C148.439 27.375 147.239 27.0792 146.205 26.4875C145.172 25.8958 144.364 25.075 143.78 24.025C143.205 22.975 142.918 21.7667 142.918 20.4C142.918 18.925 143.201 17.6458 143.768 16.5625C144.335 15.4708 145.122 14.625 146.13 14.025C147.139 13.425 148.305 13.125 149.63 13.125C151.03 13.125 152.218 13.4542 153.193 14.1125C154.176 14.7625 154.905 15.6833 155.38 16.875C155.855 18.0667 156.035 19.4708 155.918 21.0875H152.93V19.9875C152.922 18.5208 152.664 17.45 152.155 16.775C151.647 16.1 150.847 15.7625 149.755 15.7625C148.522 15.7625 147.605 16.1458 147.005 16.9125C146.405 17.6708 146.105 18.7833 146.105 20.25C146.105 21.6167 146.405 22.675 147.005 23.425C147.605 24.175 148.48 24.55 149.63 24.55C150.372 24.55 151.01 24.3875 151.543 24.0625C152.085 23.7292 152.501 23.25 152.793 22.625L155.768 23.525C155.251 24.7417 154.451 25.6875 153.368 26.3625C152.293 27.0375 151.105 27.375 149.805 27.375ZM145.155 21.0875V18.8125H154.443V21.0875H145.155Z" fill="#EFEFEF"/>
<path d="M29.8398 16.1745C30.0314 16.5078 30.1322 16.8855 30.1322 17.27C30.1322 17.6545 30.0314 18.0322 29.8398 18.3655L25.531 25.7989C25.3385 26.1308 25.0622 26.4063 24.7298 26.5979C24.3975 26.7894 24.0206 26.8904 23.637 26.8906L15.0656 26.8906C14.6846 26.8877 14.3109 26.7855 13.9815 26.594C13.652 26.4026 13.3782 26.1285 13.187 25.7989L8.87818 18.3655C8.68663 18.0322 8.58582 17.6545 8.58582 17.27C8.58582 16.8855 8.68663 16.5078 8.87818 16.1745L11.2583 12.0701L16.5546 21.1275C16.6418 21.2825 16.7691 21.4113 16.9232 21.5002C17.0772 21.5891 17.2524 21.6349 17.4302 21.6328L21.2877 21.6328C21.4656 21.6349 21.6408 21.5891 21.7948 21.5002C21.9489 21.4113 22.0762 21.2825 22.1634 21.1275L24.0921 17.7599C24.1795 17.6086 24.2255 17.437 24.2255 17.2623C24.2255 17.0876 24.1795 16.916 24.0921 16.7647L15.3973 1.72045C15.0956 1.19867 14.662 0.765398 14.14 0.464105C13.618 0.162813 13.0259 0.00408893 12.4232 0.00385911L11.644 0.00385914C10.9544 0.00359764 10.2769 0.184924 9.6797 0.529597C9.08244 0.87427 8.58648 1.37014 8.24169 1.96733L0.526706 15.3104C0.181668 15.9072 -7.84862e-07 16.5845 -7.54727e-07 17.2739C-7.24593e-07 17.9633 0.181668 18.6405 0.526706 19.2373L8.2417 32.5804C8.58697 33.1769 9.08314 33.672 9.68036 34.0159C10.2776 34.3599 10.9548 34.5407 11.644 34.54L27.074 34.54C27.7636 34.5403 28.441 34.3589 29.0383 34.0143C29.6355 33.6696 30.1315 33.1737 30.4763 32.5765L38.1913 19.2335C38.5363 18.6366 38.718 17.9594 38.718 17.27C38.718 16.5806 38.5363 15.9034 38.1913 15.3065L30.4763 1.96347C30.1315 1.36628 29.6355 0.870411 29.0383 0.525738C28.441 0.181065 27.7636 -0.00025847 27.074 3.09408e-06L20.5162 3.38073e-06L29.8398 16.1745Z" fill="#475BE8"/>
</svg>
